# xmcd
# 
# Track frame offsets:
#     150
#     13976
#     28413
#     45676
#     67520
#     89995
#     115225
#     135169
#     154407
#     184887
# 
# Disc length: 2756
# 
# Revision: 1
# Processed by: cddbd v1.5.2PL0 Copyright (c) Steve Scherf et al.
# Submitted via: fre:ac v1.0.31
# 
DISCID=890ac20a
DTITLE=Savoy Brown - Strange Dreams
DYEAR=2003
DGENRE=Blues
TTITLE0=When It Rains
TTITLE1=Can't Take It With You
TTITLE2=Meat Shaking Woman
TTITLE3=Strange Dream
TTITLE4=Keep on Rollin'
TTITLE5=Shake it All Night
TTITLE6=Pain of Love
TTITLE7=(Hard Time) Believing In You
TTITLE8=Memphis Last Night
TTITLE9=Can't Let You Go
EXTD=YEAR: 2003
EXTT0=
EXTT1=
EXTT2=
EXTT3=
EXTT4=
EXTT5=
EXTT6=
EXTT7=
EXTT8=
EXTT9=
PLAYORDER=
